<svg width="18" height="14" viewBox="0 0 18 14" fill="none" xmlns="http://www.w3.org/2000/svg">
<path d="M13.9219 10.625H14.7305C14.9414 10.625 15.1875 10.4141 15.1875 10.2031V2.08203C15.1875 1.87109 14.9414 1.625 14.7305 1.625H13.9219C13.7109 1.625 13.5 1.87109 13.5 2.08203V10.2031C13.5 10.4141 13.7109 10.625 13.9219 10.625ZM7.17188 10.625H7.98047C8.19141 10.625 8.4375 10.4141 8.4375 10.2031V3.20703C8.4375 2.99609 8.19141 2.75 7.98047 2.75H7.17188C6.96094 2.75 6.75 2.99609 6.75 3.20703V10.2031C6.75 10.4141 6.96094 10.625 7.17188 10.625ZM10.5469 10.625H11.3555C11.5664 10.625 11.8125 10.4141 11.8125 10.2031V5.45703C11.8125 5.24609 11.5664 5 11.3555 5H10.5469C10.3359 5 10.125 5.24609 10.125 5.45703V10.2031C10.125 10.4141 10.3359 10.625 10.5469 10.625ZM17.4375 12.3125H1.6875V1.0625C1.6875 0.78125 1.40625 0.5 1.125 0.5H0.5625C0.246094 0.5 0 0.78125 0 1.0625V12.875C0 13.5078 0.492188 14 1.125 14H17.4375C17.7188 14 18 13.7539 18 13.4375V12.875C18 12.5938 17.7188 12.3125 17.4375 12.3125ZM3.79688 10.625H4.60547C4.81641 10.625 5.0625 10.4141 5.0625 10.2031V7.70703C5.0625 7.49609 4.81641 7.25 4.60547 7.25H3.79688C3.58594 7.25 3.375 7.49609 3.375 7.70703V10.2031C3.375 10.4141 3.58594 10.625 3.79688 10.625Z" fill="#F27C08"/>
</svg>
