<svg width="19" height="16" viewBox="0 0 19 16" fill="none" xmlns="http://www.w3.org/2000/svg">
<path d="M18.4375 7.40625H8.3125C7.99609 7.40625 7.75 7.6875 7.75 7.96875V8.53125C7.75 8.84766 7.99609 9.09375 8.3125 9.09375H18.4375C18.7188 9.09375 19 8.84766 19 8.53125V7.96875C19 7.6875 18.7188 7.40625 18.4375 7.40625ZM18.4375 13.0312H8.3125C7.99609 13.0312 7.75 13.3125 7.75 13.5938V14.1562C7.75 14.4727 7.99609 14.7188 8.3125 14.7188H18.4375C18.7188 14.7188 19 14.4727 19 14.1562V13.5938C19 13.3125 18.7188 13.0312 18.4375 13.0312ZM18.4375 1.78125H8.3125C7.99609 1.78125 7.75 2.0625 7.75 2.34375V2.90625C7.75 3.22266 7.99609 3.46875 8.3125 3.46875H18.4375C18.7188 3.46875 19 3.22266 19 2.90625V2.34375C19 2.0625 18.7188 1.78125 18.4375 1.78125ZM3.25 12.1875C2.33594 12.1875 1.5625 12.9609 1.5625 13.875C1.5625 14.8242 2.33594 15.5625 3.25 15.5625C4.16406 15.5625 4.9375 14.8242 4.9375 13.875C4.9375 12.9609 4.16406 12.1875 3.25 12.1875ZM5.88672 6.14062C5.81641 6.07031 5.71094 6 5.60547 6C5.46484 6 5.35938 6.07031 5.28906 6.14062L3.03906 8.35547L2.26562 7.58203C2.19531 7.51172 2.08984 7.47656 1.94922 7.47656C1.84375 7.47656 1.73828 7.51172 1.66797 7.58203L1.10547 8.14453C1.03516 8.21484 0.964844 8.32031 0.964844 8.42578C0.964844 8.56641 1.03516 8.67188 1.10547 8.74219L2.79297 10.3945C2.86328 10.4648 2.96875 10.5 3.07422 10.5C3.21484 10.5 3.32031 10.4648 3.39062 10.3945L3.95312 9.83203L6.48438 7.33594C6.55469 7.26562 6.58984 7.16016 6.58984 7.01953C6.58984 6.91406 6.55469 6.80859 6.48438 6.73828L5.88672 6.14062ZM5.88672 0.515625C5.81641 0.445312 5.71094 0.375 5.60547 0.375C5.46484 0.375 5.35938 0.445312 5.28906 0.515625L3.03906 2.73047L2.26562 1.95703C2.19531 1.88672 2.08984 1.85156 1.94922 1.85156C1.84375 1.85156 1.73828 1.88672 1.66797 1.95703L1.10547 2.51953C1.03516 2.58984 0.964844 2.69531 0.964844 2.80078C0.964844 2.94141 1.03516 3.04688 1.10547 3.11719L2.79297 4.76953C2.86328 4.83984 2.96875 4.875 3.07422 4.875C3.21484 4.875 3.32031 4.83984 3.39062 4.76953L3.95312 4.20703L6.48438 1.67578C6.55469 1.60547 6.625 1.5 6.625 1.39453C6.625 1.28906 6.55469 1.18359 6.48438 1.07812L5.88672 0.515625Z" fill="#F27C08"/>
</svg>
