<svg width="19" height="21" viewBox="0 0 19 21" fill="none" xmlns="http://www.w3.org/2000/svg">
<path d="M9.5 19.25C8.79688 19.25 8.25 18.7031 8.25 18H7C7 19.4062 8.09375 20.5 9.5 20.5C10.8672 20.5 12 19.4062 12 18H10.75C10.75 18.7031 10.1641 19.25 9.5 19.25ZM17.6641 13.5859C16.5703 12.5703 15.75 11.4766 15.75 7.76562C15.75 4.67969 13.25 2.14062 10.125 1.82812V1.125C10.125 0.8125 9.8125 0.5 9.5 0.5C9.14844 0.5 8.875 0.8125 8.875 1.125V1.82812C5.71094 2.14062 3.21094 4.67969 3.21094 7.76562C3.21094 11.4766 2.39062 12.5703 1.29688 13.5859C0.75 14.1328 0.59375 14.9141 0.867188 15.6172C1.14062 16.3203 1.84375 16.75 2.625 16.75H16.375C17.1172 16.75 17.8203 16.3203 18.0938 15.6172C18.3672 14.9141 18.2109 14.1328 17.6641 13.5859ZM16.375 15.5H2.625C2.03906 15.5 1.76562 14.875 2.15625 14.4844C3.52344 13.1953 4.46094 11.75 4.46094 7.76562C4.46094 5.14844 6.72656 3 9.5 3C12.2344 3 14.5 5.14844 14.5 7.76562C14.5 11.75 15.4375 13.1953 16.8047 14.4844C17.1953 14.875 16.9219 15.5 16.375 15.5Z" fill="#121619"/>
</svg>
