<svg width="22" height="24" viewBox="0 0 22 24" fill="none" xmlns="http://www.w3.org/2000/svg">
<path d="M15.1333 16.5H14.8989C14.3364 16.5 13.7739 16.6406 13.2114 16.8281C12.4146 17.1094 11.5239 17.25 10.6333 17.25C9.6958 17.25 8.80518 17.1094 8.0083 16.8281C7.4458 16.6406 6.8833 16.5469 6.3208 16.5469H6.1333C2.80518 16.5469 0.133301 19.2188 0.133301 22.5C0.133301 23.3438 0.789551 24 1.6333 24H19.6333C20.4302 24 21.1333 23.3438 21.1333 22.5C21.1333 19.2188 18.4146 16.5 15.1333 16.5ZM1.6333 22.5C1.6333 20.0625 3.64893 18.0469 6.1333 18H6.3208C6.64893 18 7.02393 18.0938 7.49268 18.2812C8.47705 18.6094 9.5083 18.75 10.5864 18.75C11.7114 18.75 12.7427 18.6094 13.7271 18.2812C14.1958 18.0938 14.5708 18 14.8989 18H15.1333C17.5708 18.0469 19.5864 20.0625 19.6333 22.5H1.6333ZM2.3833 10.5C2.7583 10.5 3.1333 10.1719 3.1333 9.75V9C3.1333 4.875 6.46143 1.5 10.6333 1.5C14.7583 1.5 18.1333 4.875 18.1333 9V9.75C18.0864 11.8594 16.4458 13.5 14.3833 13.5H12.8833C12.8833 12.7031 12.1802 12 11.3833 12H9.8833C9.03955 12 8.3833 12.7031 8.3833 13.5C8.3833 14.3438 9.03955 15 9.8833 15H14.3833C17.2427 15 19.5864 12.6562 19.6333 9.75V9C19.6333 4.07812 15.5552 0 10.6333 0C5.66455 0 1.6333 4.07812 1.6333 9V9.75C1.6333 10.1719 1.96143 10.5 2.3833 10.5ZM10.6333 4.5C13.1177 4.5 15.1333 6.51562 15.1333 9C15.1333 10.1719 14.6646 11.2031 13.9614 12H14.3833C15.1802 12 15.8833 11.5781 16.2583 10.9688C16.4927 10.3594 16.6333 9.70312 16.6333 9C16.6333 5.71875 13.9146 3 10.6333 3C7.30518 3 4.6333 5.71875 4.6333 9C4.6333 10.9219 5.52393 12.5625 6.8833 13.6875C6.8833 13.6406 6.8833 13.5938 6.8833 13.5C6.8833 12.9844 7.02393 12.4688 7.2583 12C6.55518 11.25 6.08643 10.1719 6.08643 9C6.08643 6.51562 8.10205 4.54688 10.5864 4.54688C10.5864 4.54688 10.5864 4.5 10.6333 4.5Z" fill="#FF8D30"/>
</svg>
