<svg width="24" height="19" viewBox="0 0 24 19" fill="none" xmlns="http://www.w3.org/2000/svg">
<path d="M20.7188 13.1875C20.0156 13.1875 19.418 13.4688 18.9609 13.8906L16.2188 12.3086C16.3945 11.8867 16.5 11.4297 16.5 10.9375C16.5 8.79297 14.707 7 12.5625 7C12.2461 7 11.9648 7.07031 11.6836 7.10547L10.5586 4.67969C11.0859 4.22266 11.4375 3.55469 11.4375 2.81641C11.4375 1.41016 10.2773 0.285156 8.90625 0.285156C7.5 0.285156 6.375 1.41016 6.375 2.81641C6.375 4.1875 7.5 5.34766 8.90625 5.34766C8.90625 5.34766 8.94141 5.3125 8.97656 5.3125L10.1719 7.84375C9.22266 8.54688 8.625 9.67188 8.625 10.9375C8.625 13.1172 10.3828 14.875 12.5625 14.875C13.6172 14.875 14.6016 14.4531 15.3047 13.75L18.2227 15.4023C18.1875 15.5078 18.1875 15.6133 18.1875 15.7188C18.1875 17.125 19.3125 18.25 20.7188 18.25C22.0898 18.25 23.25 17.125 23.25 15.7188C23.25 14.3477 22.0898 13.1875 20.7188 13.1875ZM8.90625 3.625C8.41406 3.625 8.0625 3.27344 8.0625 2.78125C8.0625 2.32422 8.41406 1.9375 8.90625 1.9375C9.36328 1.9375 9.75 2.32422 9.75 2.78125C9.75 3.27344 9.36328 3.625 8.90625 3.625ZM12.5625 13.1875C11.2969 13.1875 10.3125 12.2031 10.3125 10.9375C10.3125 9.70703 11.2969 8.6875 12.5625 8.6875C13.793 8.6875 14.8125 9.70703 14.8125 10.9375C14.8125 12.2031 13.793 13.1875 12.5625 13.1875ZM20.7188 16.5625C20.2266 16.5625 19.875 16.2109 19.875 15.7188C19.875 15.2617 20.2266 14.875 20.7188 14.875C21.1758 14.875 21.5625 15.2617 21.5625 15.7188C21.5625 16.2109 21.1758 16.5625 20.7188 16.5625ZM18.7852 7.38672L18.1172 6.50781L16.4297 7.77344L17.0977 8.65234L18.7852 7.38672ZM21 7C22.2305 7 23.25 6.01562 23.25 4.75C23.25 3.51953 22.2305 2.5 21 2.5C19.7344 2.5 18.75 3.51953 18.75 4.75C18.75 6.01562 19.7344 7 21 7ZM6.09375 11.5H7.78125V10.375H6.09375V11.5ZM3 8.6875C1.73438 8.6875 0.75 9.70703 0.75 10.9375C0.75 12.2031 1.73438 13.1875 3 13.1875C4.23047 13.1875 5.25 12.2031 5.25 10.9375C5.25 9.70703 4.23047 8.6875 3 8.6875Z" fill="#F27C08"/>
</svg>
