<svg width="21" height="21" viewBox="0 0 21 21" fill="none" xmlns="http://www.w3.org/2000/svg">
<path d="M10.5 0.8125C5.14844 0.8125 0.8125 5.1875 0.8125 10.5C0.8125 15.8516 5.14844 20.1875 10.5 20.1875C15.8125 20.1875 20.1875 15.8516 20.1875 10.5C20.1875 5.1875 15.8125 0.8125 10.5 0.8125ZM10.5 2.0625C11.2031 2.0625 11.9453 2.17969 12.6094 2.375L10.5781 4.09375C10.3047 4.25 10.1484 4.5625 10.1484 4.91406C10.1875 5.22656 10.3828 5.53906 10.6953 5.69531L11.0859 5.89062V8.42969C11.0469 8.39062 10.9688 8.39062 10.8906 8.39062C10.6172 8.39062 10.3438 8.50781 10.1875 8.78125L9.48438 9.875C9.17188 9.875 8.85938 10.0312 8.625 10.2656L8.39062 10.5C8.19531 10.6562 8.11719 10.8906 8.11719 11.1641C8.11719 11.3984 8.19531 11.6328 8.39062 11.7891L8.625 12.0234V12.375H7.72656L6.86719 10.6172C6.71094 10.3438 6.47656 10.1875 6.16406 10.1094C5.89062 10.0703 5.57812 10.1875 5.34375 10.3828L4.60156 11.125H2.0625C2.0625 10.9297 2.0625 10.7344 2.0625 10.5C2.0625 5.85156 5.8125 2.0625 10.5 2.0625ZM2.25781 12.375H4.60156C4.91406 12.375 5.22656 12.2578 5.46094 12.0234L5.92969 11.5938L6.63281 12.9609C6.82812 13.3906 7.25781 13.625 7.72656 13.625H8.625C9.28906 13.625 9.875 13.0781 9.875 12.375V12.0234C9.875 11.7109 9.71875 11.3984 9.48438 11.1641V11.125C9.95312 11.125 10.3438 10.9297 10.5781 10.5391L11.0078 9.83594C11.125 9.875 11.2422 9.875 11.4375 9.875C11.9453 9.875 12.375 9.48438 12.375 8.9375V5.89062C12.375 5.42188 12.1016 4.99219 11.6719 4.79688L13.9766 2.84375C16.9062 4.17188 18.9375 7.10156 18.9375 10.5C18.9375 11.3984 18.7812 12.2578 18.5078 13.0781C18.4688 13 18.4297 12.9219 18.3516 12.8438L18.1953 12.6484V12.5312C18.1953 11.7891 17.5312 11.125 16.7891 11.125H16.5547C16.3203 11.125 16.125 11.2031 15.9297 11.2812C15.7344 11.2031 15.5 11.1641 15.2656 11.1641V11.125H14.7969C14.4844 11.125 14.1719 11.2422 13.8984 11.4375L12.9609 12.1016L11.4766 12.6875C10.8906 12.9219 10.5 13.5078 10.5 14.1328V14.5234C10.5 14.9531 10.6562 15.3438 10.9688 15.6562L11.4375 16.0859C11.7891 16.4766 12.2578 16.6719 12.7656 16.6719H13.1562C13.3125 16.6719 13.4688 16.6328 13.625 16.5938L14.3281 16.4375L14.7578 16.8281C14.9531 17.0625 15.2266 17.2188 15.5 17.2969C14.0938 18.3516 12.375 18.9375 10.5 18.9375C6.47656 18.9375 3.11719 16.1641 2.25781 12.375ZM16.7891 16.125C16.75 16.125 16.7109 16.125 16.6719 16.125H16.0859C15.9297 16.125 15.7344 16.0859 15.6172 15.9688L15.1094 15.4609C14.9531 15.2656 14.6797 15.1484 14.4062 15.1484C14.2891 15.1484 14.2109 15.1484 14.1328 15.1875L13.3125 15.3828C13.2344 15.3828 13.1953 15.4219 13.1562 15.4219H12.7656C12.5703 15.4219 12.4141 15.3438 12.2969 15.2266L11.8281 14.7578C11.7891 14.7188 11.75 14.6406 11.75 14.5234V14.1328C11.75 14.0156 11.8281 13.8984 11.9453 13.8594L13.4688 13.2344C13.5469 13.1953 13.625 13.1562 13.7031 13.1172L14.6406 12.4531C14.6797 12.4141 14.7578 12.4141 14.7969 12.4141H15.2656C15.4219 12.4141 15.5391 12.4531 15.5781 12.5703L15.7734 13.0781C15.8125 13.1562 15.8516 13.1953 15.9297 13.1953H16.0859C16.125 13.1953 16.2031 13.1562 16.2031 13.0781L16.3984 12.4922C16.3984 12.4531 16.4766 12.4141 16.5156 12.4141H16.7891C16.8672 12.4141 16.9453 12.4531 16.9453 12.5703V13.0391C16.9453 13.1562 16.9453 13.2344 17.0234 13.2734L17.4922 13.7422C17.6094 13.8594 17.6484 14.0156 17.6484 14.1719V14.9141C17.4141 15.3438 17.1016 15.7344 16.7891 16.125Z" fill="#121619"/>
</svg>
