<svg width="12" height="11" viewBox="0 0 12 11" fill="none" xmlns="http://www.w3.org/2000/svg">
<path d="M10.7944 5.09375H6.41943V0.71875C6.41943 0.609375 6.31006 0.5 6.20068 0.5H5.32568C5.18896 0.5 5.10693 0.609375 5.10693 0.71875V5.09375H0.731934C0.595215 5.09375 0.513184 5.20312 0.513184 5.3125V6.1875C0.513184 6.32422 0.595215 6.40625 0.731934 6.40625H5.10693V10.7812C5.10693 10.918 5.18896 11 5.32568 11H6.20068C6.31006 11 6.41943 10.918 6.41943 10.7812V6.40625H10.7944C10.9038 6.40625 11.0132 6.32422 11.0132 6.1875V5.3125C11.0132 5.20312 10.9038 5.09375 10.7944 5.09375Z" fill="white"/>
</svg>
