<svg width="18" height="18" viewBox="0 0 18 18" fill="none" xmlns="http://www.w3.org/2000/svg">
<path d="M9 3.90625C7.13672 3.90625 5.625 5.41797 5.625 7.28125C5.625 9.14453 7.13672 10.6562 9 10.6562C10.8633 10.6562 12.375 9.14453 12.375 7.28125C12.375 5.41797 10.8633 3.90625 9 3.90625ZM9 8.96875C8.05078 8.96875 7.3125 8.23047 7.3125 7.28125C7.3125 6.36719 8.05078 5.59375 9 5.59375C9.91406 5.59375 10.6875 6.36719 10.6875 7.28125C10.6875 8.23047 9.91406 8.96875 9 8.96875ZM9 0.53125C4.18359 0.53125 0.28125 4.43359 0.28125 9.25C0.28125 14.0664 4.18359 17.9688 9 17.9688C13.8164 17.9688 17.7188 14.0664 17.7188 9.25C17.7188 4.43359 13.8164 0.53125 9 0.53125ZM9 16.2812C7.24219 16.2812 5.625 15.6484 4.39453 14.5938C4.92188 13.7852 5.83594 13.2227 6.85547 13.2227C7.59375 13.4336 8.29688 13.5391 9 13.5391C9.66797 13.5391 10.3711 13.4336 11.1094 13.2227C12.1289 13.2578 13.043 13.7852 13.5703 14.5938C12.3398 15.6484 10.7227 16.2812 9 16.2812ZM14.6953 13.3281C13.8516 12.2383 12.5156 11.5 11.0039 11.5C10.6523 11.5 10.0898 11.8516 9 11.8516C7.875 11.8516 7.3125 11.5 6.96094 11.5C5.44922 11.5 4.11328 12.2383 3.26953 13.3281C2.42578 12.2031 1.96875 10.7969 1.96875 9.25C1.96875 5.38281 5.09766 2.21875 9 2.21875C12.8672 2.21875 16.0312 5.38281 16.0312 9.25C16.0312 10.7969 15.5391 12.2031 14.6953 13.3281Z" fill="#F27C08"/>
</svg>
