<svg width="11" height="8" viewBox="0 0 11 8" fill="none" xmlns="http://www.w3.org/2000/svg">
<path d="M7.23193 0.912109L6.76318 1.38086C6.66943 1.49805 6.66943 1.66211 6.78662 1.7793L8.66162 3.58398H0.599121C0.435059 3.58398 0.317871 3.72461 0.317871 3.86523V4.52148C0.317871 4.68555 0.435059 4.80273 0.599121 4.80273H8.66162L6.78662 6.63086C6.66943 6.74805 6.66943 6.91211 6.76318 7.0293L7.23193 7.49805C7.34912 7.5918 7.51318 7.5918 7.63037 7.49805L10.7241 4.4043C10.8179 4.28711 10.8179 4.12305 10.7241 4.00586L7.63037 0.912109C7.51318 0.818359 7.34912 0.818359 7.23193 0.912109Z" fill="#005DF8"/>
</svg>
