<svg width="24" height="24" viewBox="0 0 25 25" fill="none" xmlns="http://www.w3.org/2000/svg">
<path d="M24.3125 21.9844L18.6406 16.3125C18.5 16.2188 18.3594 16.125 18.2188 16.125H17.6094C19.0625 14.4375 20 12.1875 20 9.75C20 4.40625 15.5938 0 10.25 0C4.85938 0 0.5 4.40625 0.5 9.75C0.5 15.1406 4.85938 19.5 10.25 19.5C12.6875 19.5 14.8906 18.6094 16.625 17.1562V17.7656C16.625 17.9062 16.6719 18.0469 16.7656 18.1875L22.4375 23.8594C22.6719 24.0938 23.0469 24.0938 23.2344 23.8594L24.3125 22.7812C24.5469 22.5938 24.5469 22.2188 24.3125 21.9844ZM10.25 17.25C6.07812 17.25 2.75 13.9219 2.75 9.75C2.75 5.625 6.07812 2.25 10.25 2.25C14.375 2.25 17.75 5.625 17.75 9.75C17.75 13.9219 14.375 17.25 10.25 17.25Z" fill="#121619"/>
</svg>
