<svg width="21" height="21" viewBox="0 0 21 21" fill="none" xmlns="http://www.w3.org/2000/svg">
<path d="M10.5 0.8125C5.14844 0.8125 0.8125 5.14844 0.8125 10.5C0.8125 15.8516 5.14844 20.1875 10.5 20.1875C15.8516 20.1875 20.1875 15.8516 20.1875 10.5C20.1875 5.14844 15.8516 0.8125 10.5 0.8125ZM15.5 17.2969C14.0938 18.3516 12.3359 18.9375 10.5 18.9375C8.625 18.9375 6.86719 18.3516 5.5 17.2969V16.75C5.5 15.3828 6.59375 14.25 8 14.25C8.42969 14.25 9.05469 14.7188 10.5 14.7188C11.9062 14.7188 12.5312 14.25 13 14.25C14.3672 14.25 15.5 15.3828 15.5 16.75V17.2969ZM16.6719 16.2422C16.3984 14.4062 14.875 13 13 13C12.1797 13 11.7891 13.4688 10.5 13.4688C9.17188 13.4688 8.78125 13 8 13C6.08594 13 4.5625 14.4062 4.28906 16.2422C2.88281 14.7188 2.0625 12.7266 2.0625 10.5C2.0625 5.85156 5.8125 2.0625 10.5 2.0625C15.1484 2.0625 18.9375 5.85156 18.9375 10.5C18.9375 12.7266 18.0781 14.7188 16.6719 16.2422ZM10.5 5.1875C8.58594 5.1875 7.0625 6.75 7.0625 8.625C7.0625 10.5391 8.58594 12.0625 10.5 12.0625C12.375 12.0625 13.9375 10.5391 13.9375 8.625C13.9375 6.75 12.375 5.1875 10.5 5.1875ZM10.5 10.8125C9.28906 10.8125 8.3125 9.83594 8.3125 8.625C8.3125 7.45312 9.28906 6.4375 10.5 6.4375C11.6719 6.4375 12.6875 7.45312 12.6875 8.625C12.6875 9.83594 11.6719 10.8125 10.5 10.8125Z" fill="#121619"/>
</svg>
