<svg width="24" height="19" viewBox="0 0 24 19" fill="none" xmlns="http://www.w3.org/2000/svg">
<path d="M19.3125 12.625H13.125V8.6875C13.125 8.40625 12.8438 8.125 12.5625 8.125H4.6875C4.37109 8.125 4.125 8.40625 4.125 8.6875V17.6875C4.125 18.0039 4.37109 18.25 4.6875 18.25H19.3125C19.5938 18.25 19.875 18.0039 19.875 17.6875V13.1875C19.875 12.9062 19.5938 12.625 19.3125 12.625ZM11.4375 16.5625H5.8125V14.3125H11.4375V16.5625ZM11.4375 12.0625H5.8125V9.8125H11.4375V12.0625ZM18.1875 16.5625H13.125V14.3125H18.1875V16.5625ZM21.7383 4.15234L12.9141 0.460938C12.3164 0.214844 11.6484 0.214844 11.0508 0.460938L2.22656 4.15234C1.3125 4.50391 0.75 5.38281 0.75 6.36719V17.6875C0.75 18.0039 0.996094 18.25 1.3125 18.25H1.875C2.15625 18.25 2.4375 18.0039 2.4375 17.6875V6.36719C2.4375 6.05078 2.57812 5.80469 2.85938 5.69922L11.7188 2.00781C11.8945 1.9375 12.0703 1.9375 12.2461 2.00781L21.1055 5.69922C21.3867 5.80469 21.5625 6.05078 21.5625 6.36719V17.6875C21.5625 18.0039 21.8086 18.25 22.125 18.25H22.6875C22.9688 18.25 23.25 18.0039 23.25 17.6875V6.36719C23.25 5.38281 22.6523 4.50391 21.7383 4.15234Z" fill="#F27C08"/>
</svg>
