<svg width="147" height="41" viewBox="0 0 147 41" fill="none" xmlns="http://www.w3.org/2000/svg">
<path d="M27.4384 6.11333L20.0582 2.21829C18.5176 1.4052 16.8044 0.980469 15.0652 0.980469C13.326 0.980469 11.6128 1.4052 10.0722 2.21829L2.69201 6.11333C1.88003 6.5418 1.19992 7.186 0.725392 7.97612C0.25086 8.76624 4.06693e-07 9.67214 0 10.5957L0 28.4374C0 28.4753 0 28.5142 0.001793 28.5521C0.019422 29.3481 0.22338 30.1286 0.597059 30.8301C0.970737 31.5316 1.50357 32.1342 2.15217 32.589C2.32485 32.7108 2.50518 32.8213 2.69201 32.9197L6.74348 35.0583C9.31123 36.4133 12.1666 37.121 15.0652 37.121C17.9638 37.121 20.8192 36.4133 23.387 35.0583L27.4384 32.9197C27.6252 32.8213 27.8056 32.7108 27.9782 32.589C28.6268 32.1343 29.1597 31.5316 29.5334 30.8301C29.907 30.1286 30.111 29.3481 30.1286 28.5521C30.1304 28.5142 30.1304 28.4753 30.1304 28.4374V10.5957C30.1304 9.67214 29.8795 8.76624 29.405 7.97612C28.9305 7.186 28.2504 6.5418 27.4384 6.11333V6.11333ZM27.9782 28.4374C27.9782 28.4753 27.9773 28.5142 27.9755 28.5521C27.9567 29.0601 27.8047 29.5541 27.5351 29.9838C27.2654 30.4136 26.8877 30.7638 26.4403 30.9988L22.3889 33.1374C20.1291 34.3298 17.6161 34.9526 15.0652 34.9526C12.5143 34.9526 10.0014 34.3298 7.74155 33.1374L3.69008 30.9988C3.24268 30.7637 2.86498 30.4136 2.59535 29.9838C2.32572 29.5541 2.17376 29.0601 2.1549 28.5521C2.15311 28.5142 2.15221 28.4753 2.15221 28.4374V10.5957C2.15127 10.0678 2.29419 9.54976 2.56537 9.09809C2.83655 8.64641 3.22559 8.27841 3.69008 8.0342L11.0711 4.13915C12.3035 3.48868 13.674 3.14889 15.0652 3.14889C16.4565 3.14889 17.827 3.48868 19.0593 4.13915L26.4403 8.0342C26.9048 8.27841 27.2939 8.64641 27.5651 9.09808C27.8363 9.54976 27.9792 10.0678 27.9783 10.5957L27.9782 28.4374Z" fill="#F27C08"/>
<path fill-rule="evenodd" clip-rule="evenodd" d="M27.9784 28.4374V24.5143C27.8057 24.3925 27.6254 24.282 27.4385 24.1836L20.0584 20.2886C18.5178 19.4755 16.8046 19.0508 15.0654 19.0508C13.3262 19.0508 11.613 19.4755 10.0723 20.2886L2.69218 24.1836C2.50535 24.282 2.32503 24.3925 2.15234 24.5143V28.4373C2.15234 28.4753 2.15325 28.5141 2.15504 28.5521C2.1739 29.0601 2.32586 29.5541 2.59549 29.9838C2.86512 30.4136 3.24282 30.7637 3.69022 30.9988L7.74168 33.1374C10.0015 34.3298 12.5144 34.9526 15.0654 34.9526C17.6163 34.9526 20.1292 34.3298 22.389 33.1374L26.4405 30.9988C26.8879 30.7638 27.2656 30.4136 27.5352 29.9839C27.8049 29.5541 27.9568 29.0602 27.9757 28.5521C27.9775 28.5142 27.9784 28.4753 27.9784 28.4374ZM21.3906 31.484C21.4761 31.3618 21.522 31.216 21.5219 31.0666C21.5222 30.9513 21.495 30.8377 21.4428 30.7352C21.3906 30.6327 21.3147 30.5443 21.2216 30.4773C21.1285 30.4104 21.0209 30.3669 20.9077 30.3505C20.7945 30.3341 20.679 30.3452 20.5709 30.383C17.0094 31.6567 13.1212 31.6567 9.55963 30.383C9.45158 30.3452 9.33613 30.3341 9.22293 30.3505C9.10974 30.3669 9.00209 30.4104 8.90899 30.4774C8.8159 30.5443 8.74006 30.6327 8.68783 30.7352C8.6356 30.8377 8.60849 30.9513 8.60877 31.0666C8.60868 31.216 8.65453 31.3618 8.74002 31.484C8.8255 31.6061 8.94642 31.6986 9.08617 31.7487C12.9546 33.129 17.1761 33.129 21.0445 31.7487C21.1843 31.6986 21.3052 31.6061 21.3906 31.484Z" fill="#F27C08"/>
<path d="M109.761 10.376H106.891C105.369 10.376 103.91 10.9852 102.833 12.0696C101.757 13.1541 101.152 14.6249 101.152 16.1585V19.0497C101.152 20.5833 101.757 22.0541 102.833 23.1386C103.91 24.223 105.369 24.8322 106.891 24.8322H109.761C110.515 24.8322 111.261 24.6826 111.957 24.392C112.654 24.1014 113.286 23.6755 113.819 23.1385C114.352 22.6016 114.775 21.9641 115.063 21.2626C115.352 20.561 115.5 19.8091 115.5 19.0497V16.1584C115.5 14.6248 114.896 13.154 113.819 12.0696C112.743 10.9852 111.283 10.376 109.761 10.376ZM112.631 19.0497C112.63 19.8163 112.327 20.5511 111.789 21.0932C111.251 21.6352 110.522 21.9401 109.761 21.941H106.891C106.131 21.9401 105.401 21.6352 104.863 21.0932C104.325 20.5511 104.023 19.8163 104.022 19.0497V16.1585C104.023 15.3919 104.325 14.657 104.863 14.115C105.401 13.573 106.131 13.2681 106.891 13.2672H109.761C110.522 13.2681 111.251 13.573 111.789 14.115C112.327 14.657 112.63 15.3919 112.631 16.1585V19.0497Z" fill="#F27C08"/>
<path d="M65.6415 11.0988H63.4893C63.4178 11.0988 63.3479 11.1204 63.2887 11.1608C63.2295 11.2012 63.1836 11.2585 63.157 11.3253C62.1836 10.7039 61.0547 10.3746 59.9023 10.376H57.7502C56.1329 10.376 54.5819 11.0233 53.4384 12.1755C52.2948 13.3277 51.6523 14.8904 51.6523 16.5199V18.6883C51.6523 20.3178 52.2948 21.8805 53.4384 23.0327C54.5819 24.1849 56.1329 24.8322 57.7502 24.8322H59.9023C61.0441 24.8336 62.163 24.5105 63.1306 23.8999V24.4708C63.1306 24.5666 63.1684 24.6586 63.2357 24.7263C63.3029 24.7941 63.3942 24.8322 63.4893 24.8322H65.6415C65.7366 24.8322 65.8278 24.7941 65.8951 24.7263C65.9624 24.6586 66.0002 24.5666 66.0002 24.4708V11.4602C66.0002 11.4127 65.9909 11.3657 65.9729 11.3219C65.9548 11.278 65.9284 11.2382 65.8951 11.2046C65.8618 11.1711 65.8223 11.1444 65.7787 11.1263C65.7352 11.1081 65.6886 11.0988 65.6415 11.0988ZM59.9023 21.9409H57.7502C56.8943 21.94 56.0737 21.597 55.4685 20.9872C54.8633 20.3774 54.5229 19.5507 54.5219 18.6883V16.5199C54.5229 15.6575 54.8633 14.8307 55.4685 14.221C56.0737 13.6112 56.8943 13.2682 57.7502 13.2672H59.9023C60.7582 13.2682 61.5788 13.6112 62.184 14.221C62.7892 14.8307 63.1296 15.6575 63.1306 16.5199V18.6883C63.1296 19.5507 62.7892 20.3774 62.184 20.9872C61.5788 21.597 60.7582 21.94 59.9023 21.9409Z" fill="#F27C08"/>
<path d="M79.6575 11.3247C78.684 10.7032 77.5548 10.3741 76.4023 10.376H74.2502C73.0978 10.3746 71.9689 10.7038 70.9955 11.3252C70.9688 11.2584 70.9229 11.2011 70.8637 11.1608C70.8045 11.1204 70.7347 11.0989 70.6633 11.0988H68.511C68.4639 11.0988 68.4173 11.1081 68.3738 11.1263C68.3303 11.1445 68.2907 11.1711 68.2574 11.2046C68.2241 11.2382 68.1977 11.278 68.1796 11.3219C68.1616 11.3657 68.1523 11.4127 68.1523 11.4602V24.4708C68.1523 24.5666 68.1901 24.6586 68.2574 24.7263C68.3247 24.7941 68.4159 24.8322 68.511 24.8322H70.6632C70.7583 24.8322 70.8496 24.7941 70.9169 24.7263C70.9841 24.6586 71.0219 24.5666 71.0219 24.4708V16.5199C71.0229 15.6575 71.3633 14.8308 71.9685 14.221C72.5737 13.6112 73.3943 13.2682 74.2502 13.2672H76.4023C77.2582 13.2682 78.0788 13.6112 78.684 14.221C79.2892 14.8308 79.6296 15.6575 79.6306 16.5199V24.4708C79.6306 24.5182 79.6399 24.5652 79.6579 24.6091C79.6759 24.653 79.7023 24.6928 79.7356 24.7264C79.7689 24.7599 79.8085 24.7865 79.852 24.8047C79.8955 24.8229 79.9422 24.8322 79.9893 24.8322H82.1415C82.1886 24.8322 82.2352 24.8229 82.2788 24.8047C82.3223 24.7865 82.3618 24.7599 82.3951 24.7264C82.4284 24.6928 82.4549 24.653 82.4729 24.6091C82.4909 24.5652 82.5002 24.5182 82.5002 24.4708V16.5199C82.5008 15.4824 82.2404 14.4617 81.7433 13.5532C81.2462 12.6446 80.5286 11.8779 79.6575 11.3247Z" fill="#F27C08"/>
<path d="M92.9023 10.375H90.7502C89.6085 10.3736 88.4895 10.6967 87.5219 11.3073V6.39949C87.5219 6.35203 87.5126 6.30504 87.4946 6.26119C87.4766 6.21734 87.4502 6.1775 87.4169 6.14394C87.3835 6.11038 87.344 6.08376 87.3005 6.06559C87.257 6.04743 87.2103 6.03808 87.1632 6.03809H85.011C84.9639 6.03808 84.9173 6.04743 84.8738 6.06559C84.8303 6.08376 84.7907 6.11038 84.7574 6.14394C84.7241 6.1775 84.6977 6.21734 84.6796 6.26119C84.6616 6.30504 84.6523 6.35203 84.6523 6.39949V24.4698C84.6523 24.5657 84.6901 24.6576 84.7574 24.7254C84.8247 24.7931 84.9159 24.8312 85.011 24.8312H87.1632C87.2583 24.8312 87.3496 24.7931 87.4169 24.7254C87.4841 24.6576 87.5219 24.5657 87.5219 24.4698V23.8989C88.4895 24.5095 89.6085 24.8327 90.7502 24.8312H92.9023C94.5196 24.8312 96.0706 24.1839 97.2141 23.0317C98.3577 21.8795 99.0002 20.3168 99.0002 18.6873V16.5189C99.0002 14.8894 98.3577 13.3267 97.2141 12.1745C96.0706 11.0223 94.5196 10.375 92.9023 10.375ZM96.1306 18.6873C96.1296 19.5497 95.7892 20.3764 95.184 20.9862C94.5788 21.596 93.7582 21.939 92.9023 21.94H90.7502C89.8943 21.939 89.0737 21.596 88.4685 20.9862C87.8633 20.3764 87.5229 19.5497 87.5219 18.6873V16.5189C87.5229 15.6565 87.8633 14.8298 88.4685 14.22C89.0737 13.6102 89.8943 13.2672 90.7502 13.2662H92.9023C93.7582 13.2672 94.5788 13.6102 95.184 14.22C95.7892 14.8298 96.1296 15.6565 96.1306 16.5189V18.6873Z" fill="#F27C08"/>
<path d="M129.501 14.7086C130.117 14.0675 130.877 13.5849 131.717 13.3011C131.797 13.2836 131.869 13.239 131.92 13.1748C131.972 13.1106 132 13.0307 132 12.9481V10.7556C132 10.7052 131.99 10.6554 131.97 10.6093C131.95 10.5631 131.92 10.5218 131.883 10.4878C131.846 10.4539 131.802 10.4281 131.755 10.4122C131.708 10.3962 131.657 10.3904 131.608 10.3952C129.309 10.6251 127.107 12.8338 124.826 15.4155C122.546 12.8338 120.343 10.6251 118.045 10.3952C117.995 10.3904 117.945 10.3962 117.897 10.4122C117.85 10.4281 117.806 10.4539 117.769 10.4878C117.732 10.5218 117.703 10.5631 117.683 10.6093C117.663 10.6554 117.652 10.7052 117.652 10.7556V12.9481C117.653 13.0307 117.681 13.1106 117.732 13.1748C117.784 13.239 117.855 13.2836 117.935 13.3011C118.775 13.5849 119.535 14.0675 120.152 14.7086C121.127 15.6198 122.05 16.5863 122.917 17.6036C122.05 18.6207 121.127 19.5873 120.152 20.4985C119.535 21.1395 118.775 21.6222 117.935 21.9059C117.855 21.9235 117.784 21.9681 117.732 22.0322C117.681 22.0964 117.653 22.1764 117.652 22.2589V24.4514C117.652 24.5018 117.663 24.5517 117.683 24.5978C117.703 24.6439 117.732 24.6853 117.769 24.7192C117.806 24.7531 117.85 24.7789 117.897 24.7949C117.945 24.8108 117.995 24.8166 118.045 24.8119C120.343 24.582 122.546 22.3733 124.826 19.7916C127.107 22.3733 129.309 24.582 131.608 24.8119C131.657 24.8166 131.708 24.8108 131.755 24.7949C131.802 24.7789 131.846 24.7532 131.883 24.7192C131.92 24.6853 131.95 24.6439 131.97 24.5978C131.99 24.5517 132 24.5019 132 24.4515V22.259C132 22.1765 131.972 22.0965 131.92 22.0323C131.869 21.9681 131.797 21.9236 131.717 21.906C130.877 21.6222 130.117 21.1396 129.501 20.4985C128.525 19.5873 127.602 18.6208 126.736 17.6036C127.602 16.5864 128.525 15.6198 129.501 14.7086Z" fill="#F27C08"/>
<path d="M49.1411 10.376H46.9889C46.8938 10.376 46.8026 10.4141 46.7353 10.4818C46.668 10.5496 46.6303 10.6415 46.6302 10.7374V19.8148C46.6323 21.2835 46.3372 22.7372 45.763 24.0872C45.1888 25.4371 44.3475 26.655 43.2906 27.6664C42.6955 28.3134 41.9643 28.818 41.1505 29.1432C41.0762 29.1646 41.0106 29.2096 40.9639 29.2717C40.9171 29.3337 40.8916 29.4094 40.8911 29.4873V31.698C40.8909 31.7486 40.9013 31.7987 40.9215 31.845C40.9418 31.8913 40.9715 31.9328 41.0088 31.9668C41.046 32.0007 41.09 32.0264 41.1377 32.0421C41.1855 32.0579 41.236 32.0633 41.286 32.058C42.8159 31.7376 44.206 30.9374 45.2569 29.7722C46.5985 28.49 47.6667 26.9458 48.3962 25.2338C49.1257 23.5218 49.5012 21.6779 49.4998 19.8147V10.7374C49.4998 10.6415 49.462 10.5496 49.3948 10.4818C49.3275 10.414 49.2362 10.376 49.1411 10.376Z" fill="#F27C08"/>
<path d="M86.2755 38.2845C87.8266 38.2845 88.9601 37.5059 89.3181 36.348L88.1846 36.0286C87.8863 36.8272 87.1952 37.2264 86.2755 37.2264C84.8983 37.2264 83.9488 36.3331 83.8941 34.691H89.4374V34.1919C89.4374 31.3371 87.7471 30.3588 86.1562 30.3588C84.088 30.3588 82.7158 31.9959 82.7158 34.3516C82.7158 36.7074 84.0681 38.2845 86.2755 38.2845ZM83.8941 33.6729C83.9736 32.48 84.8138 31.4169 86.1562 31.4169C87.4289 31.4169 88.2442 32.3752 88.2442 33.6729H83.8941Z" fill="#F27C08"/>
<path d="M91.8921 30.4587H90.5399L92.966 34.2917L90.5399 38.1248H91.8921L93.7217 35.1502L95.5512 38.1248H96.9035L94.4376 34.2917L96.9035 30.4587H95.5512L93.7217 33.593L91.8921 30.4587Z" fill="#F27C08"/>
<path d="M98.5777 40.9996H99.751V36.9469H99.8504C100.109 37.3662 100.606 38.2845 102.078 38.2845C103.987 38.2845 105.319 36.7473 105.319 34.3117C105.319 31.8961 103.987 30.3588 102.058 30.3588C100.566 30.3588 100.109 31.2772 99.8504 31.6765H99.7112V30.4587H98.5777V40.9996ZM99.7311 34.2917C99.7311 32.5748 100.487 31.4169 101.919 31.4169C103.41 31.4169 104.146 32.6747 104.146 34.2917C104.146 35.9288 103.39 37.2264 101.919 37.2264C100.507 37.2264 99.7311 36.0286 99.7311 34.2917Z" fill="#F27C08"/>
<path d="M107.109 38.1248H108.282V33.2736C108.282 32.2354 109.098 31.4768 110.211 31.4768C110.524 31.4768 110.848 31.5367 110.927 31.5567V30.3588C110.793 30.3488 110.485 30.3389 110.311 30.3389C109.396 30.3389 108.6 30.8579 108.322 31.6166H108.242V30.4587H107.109V38.1248Z" fill="#F27C08"/>
<path d="M115.287 38.2845C116.838 38.2845 117.972 37.5059 118.33 36.348L117.196 36.0286C116.898 36.8272 116.207 37.2264 115.287 37.2264C113.91 37.2264 112.96 36.3331 112.906 34.691H118.449V34.1919C118.449 31.3371 116.759 30.3588 115.168 30.3588C113.1 30.3588 111.728 31.9959 111.728 34.3516C111.728 36.7074 113.08 38.2845 115.287 38.2845ZM112.906 33.6729C112.985 32.48 113.826 31.4169 115.168 31.4169C116.441 31.4169 117.256 32.3752 117.256 33.6729H112.906Z" fill="#F27C08"/>
<path d="M125.643 32.1756C125.275 31.0875 124.45 30.3588 122.938 30.3588C121.328 30.3588 120.134 31.2772 120.134 32.5748C120.134 33.6329 120.761 34.3416 122.163 34.6711L123.436 34.9705C124.206 35.1502 124.569 35.5195 124.569 36.0486C124.569 36.7074 123.873 37.2464 122.779 37.2464C121.82 37.2464 121.218 36.8322 121.009 36.0086L119.896 36.2881C120.169 37.5908 121.238 38.2845 122.799 38.2845C124.574 38.2845 125.782 37.3113 125.782 35.9887C125.782 34.9206 125.116 34.2468 123.754 33.9124L122.62 33.6329C121.715 33.4083 121.308 33.1039 121.308 32.5149C121.308 31.8561 122.004 31.377 122.938 31.377C123.963 31.377 124.385 31.946 124.589 32.475L125.643 32.1756Z" fill="#F27C08"/>
<path d="M132.957 32.1756C132.59 31.0875 131.764 30.3588 130.253 30.3588C128.642 30.3588 127.449 31.2772 127.449 32.5748C127.449 33.6329 128.075 34.3416 129.477 34.6711L130.75 34.9705C131.521 35.1502 131.884 35.5195 131.884 36.0486C131.884 36.7074 131.188 37.2464 130.094 37.2464C129.134 37.2464 128.533 36.8322 128.324 36.0086L127.21 36.2881C127.484 37.5908 128.553 38.2845 130.114 38.2845C131.889 38.2845 133.097 37.3113 133.097 35.9887C133.097 34.9206 132.43 34.2468 131.068 33.9124L129.935 33.6329C129.03 33.4083 128.622 33.1039 128.622 32.5149C128.622 31.8561 129.318 31.377 130.253 31.377C131.277 31.377 131.7 31.946 131.903 32.475L132.957 32.1756Z" fill="#F27C08"/>
<path d="M142.5 25.0742C144.986 25.0742 147 23.0526 147 20.5566C147 18.0607 144.986 16.0391 142.5 16.0391C140.014 16.0391 138 18.0607 138 20.5566C138 23.0526 140.014 25.0742 142.5 25.0742ZM142.5 23.99C140.61 23.99 139.08 22.454 139.08 20.5566C139.08 18.6593 140.61 17.1233 142.5 17.1233C144.39 17.1233 145.92 18.6593 145.92 20.5566C145.92 22.454 144.39 23.99 142.5 23.99ZM140.925 22.5895H141.836V21.1778H142.742L143.468 22.5895H144.469L143.619 20.9745C143.985 20.7486 144.3 20.3308 144.3 19.7548C144.3 18.8513 143.535 18.4221 143.029 18.4221H140.925V22.5895ZM141.836 20.5002V19.0997H142.702C142.916 19.0997 143.299 19.2465 143.299 19.7548C143.299 20.2517 142.927 20.5002 142.68 20.5002H141.836Z" fill="#F27C08"/>
</svg>
