<svg width="52" height="45" viewBox="0 0 52 45" fill="none" xmlns="http://www.w3.org/2000/svg">
<path d="M0.5 37.2215L2.67353 40.9985L12.2533 35.4502C11.4057 34.2784 10.6721 33.014 10.0689 31.6787L0.5 37.2215Z" fill="#DDE1E6"/>
<path d="M51.0572 18.0146L47.0579 20.331C47.1612 21.1049 47.2209 21.8897 47.2209 22.6909C47.2209 32.2995 39.4288 40.115 29.849 40.115C25.8443 40.115 22.1547 38.747 19.215 36.4525C18.025 35.526 16.9655 34.4469 16.0526 33.2478L12.2598 35.4442C13.1292 36.6487 14.1181 37.766 15.2103 38.7688C19.0738 42.3114 24.2142 44.4752 29.849 44.4752C41.8252 44.4752 51.568 34.703 51.568 22.6909C51.5626 21.0885 51.3832 19.5243 51.0572 18.0146Z" fill="#DDE1E6"/>
<path d="M49.6552 13.7908C49.0575 12.4555 48.3294 11.1911 47.4817 10.0139C46.6177 8.80394 45.6342 7.68665 44.542 6.67837C40.6731 3.09762 35.5056 0.912109 29.8381 0.912109C17.862 0.912109 8.11914 10.6842 8.11914 22.6964C8.11914 24.3369 8.30389 25.9283 8.65166 27.4653L12.6455 25.1544C12.5314 24.3532 12.4716 23.5303 12.4716 22.6964C12.4716 13.0878 20.2637 5.27224 29.8435 5.27224C33.8809 5.27224 37.5976 6.66747 40.5536 8.99469C41.7327 9.92666 42.7869 11.0112 43.6943 12.2103L13.8572 29.4873C14.4278 30.8389 15.1668 32.1034 16.0471 33.2533L45.8679 15.9872L49.6552 13.7908Z" fill="#DDE1E6"/>
</svg>
