<svg width="17" height="17" viewBox="0 0 17 17" fill="none" xmlns="http://www.w3.org/2000/svg">
<path d="M16.375 15.4502L12.3438 11.4189C12.2812 11.3564 12.1875 11.3252 12.0938 11.3252H11.75C12.8438 10.1377 13.5 8.60645 13.5 6.8877C13.5 3.3252 10.5625 0.387695 7 0.387695C3.40625 0.387695 0.5 3.3252 0.5 6.8877C0.5 10.4814 3.40625 13.3877 7 13.3877C8.6875 13.3877 10.25 12.7314 11.4062 11.6689V11.9814C11.4062 12.1064 11.4375 12.2002 11.5 12.2627L15.5312 16.2939C15.6875 16.4502 15.9062 16.4502 16.0625 16.2939L16.375 15.9814C16.5312 15.8252 16.5312 15.6064 16.375 15.4502ZM7 12.3877C3.9375 12.3877 1.5 9.9502 1.5 6.8877C1.5 3.85645 3.9375 1.3877 7 1.3877C10.0312 1.3877 12.5 3.85645 12.5 6.8877C12.5 9.9502 10.0312 12.3877 7 12.3877Z" fill="#687077"/>
</svg>
