<svg width="48" height="48" viewBox="0 0 48 48" fill="none" xmlns="http://www.w3.org/2000/svg">
<path d="M29.9297 20.4375C30.7109 19.8516 31.4141 19.1484 31.9609 18.3281C31.2578 18.6406 30.4375 18.875 29.6172 18.9531C30.4766 18.4453 31.1016 17.6641 31.4141 16.6875C30.6328 17.1562 29.7344 17.5078 28.8359 17.7031C28.0547 16.8828 27 16.4141 25.8281 16.4141C23.5625 16.4141 21.7266 18.25 21.7266 20.5156C21.7266 20.8281 21.7656 21.1406 21.8438 21.4531C18.4453 21.2578 15.3984 19.6172 13.3672 17.1562C13.0156 17.7422 12.8203 18.4453 12.8203 19.2266C12.8203 20.6328 13.5234 21.8828 14.6562 22.625C13.9922 22.5859 13.3281 22.4297 12.7812 22.1172V22.1562C12.7812 24.1484 14.1875 25.7891 16.0625 26.1797C15.75 26.2578 15.3594 26.3359 15.0078 26.3359C14.7344 26.3359 14.5 26.2969 14.2266 26.2578C14.7344 27.8984 16.2578 29.0703 18.0547 29.1094C16.6484 30.2031 14.8906 30.8672 12.9766 30.8672C12.625 30.8672 12.3125 30.8281 12 30.7891C13.7969 31.9609 15.9453 32.625 18.2891 32.625C25.8281 32.625 29.9297 26.4141 29.9297 20.9844C29.9297 20.7891 29.9297 20.6328 29.9297 20.4375Z" fill="#333A3F"/>
<rect x="1" y="1" width="46" height="46" rx="7" stroke="#DDE1E6" stroke-width="2"/>
</svg>
