<svg width="48" height="48" viewBox="0 0 48 48" fill="none" xmlns="http://www.w3.org/2000/svg">
<path d="M30.0938 18.3281C28.4922 16.6875 26.3047 15.75 23.9609 15.75C19.1953 15.75 15.2891 19.6562 15.2891 24.4219C15.2891 25.9844 15.7188 27.4688 16.4609 28.7578L15.25 33.25L19.8203 32.0781C21.1094 32.7422 22.5156 33.1328 23.9609 33.1328C28.7656 33.1328 32.75 29.2266 32.75 24.4609C32.75 22.1172 31.7344 19.9688 30.0938 18.3281ZM23.9609 31.6484C22.6719 31.6484 21.4219 31.2969 20.2891 30.6328L20.0547 30.4766L17.3203 31.2188L18.0625 28.5625L17.8672 28.2891C17.1641 27.1172 16.7734 25.7891 16.7734 24.4219C16.7734 20.4766 20.0156 17.2344 24 17.2344C25.9141 17.2344 27.7109 17.9766 29.0781 19.3438C30.4453 20.7109 31.2656 22.5078 31.2656 24.4609C31.2656 28.4062 27.9453 31.6484 23.9609 31.6484ZM27.9453 26.2578C27.7109 26.1406 26.6562 25.6328 26.4609 25.5547C26.2656 25.4766 26.1094 25.4375 25.9531 25.6719C25.8359 25.8672 25.4062 26.375 25.2891 26.5312C25.1328 26.6484 25.0156 26.6875 24.8203 26.5703C23.5312 25.9453 22.7109 25.4375 21.8516 23.9922C21.6172 23.6016 22.0859 23.6406 22.4766 22.8203C22.5547 22.6641 22.5156 22.5469 22.4766 22.4297C22.4375 22.3125 21.9688 21.2578 21.8125 20.8281C21.6172 20.3984 21.4609 20.4375 21.3047 20.4375C21.1875 20.4375 21.0312 20.4375 20.9141 20.4375C20.7578 20.4375 20.5234 20.4766 20.3281 20.7109C20.1328 20.9453 19.5859 21.4531 19.5859 22.5078C19.5859 23.6016 20.3281 24.6172 20.4453 24.7734C20.5625 24.8906 21.9688 27.0781 24.1562 28.0156C25.5234 28.6406 26.0703 28.6797 26.7734 28.5625C27.1641 28.5234 28.0234 28.0547 28.2188 27.5469C28.4141 27.0391 28.4141 26.6094 28.3359 26.5312C28.2969 26.4141 28.1406 26.375 27.9453 26.2578Z" fill="#333A3F"/>
<rect x="1" y="1" width="46" height="46" rx="7" stroke="#DDE1E6" stroke-width="2"/>
</svg>
