<svg width="48" height="48" viewBox="0 0 48 48" fill="none" xmlns="http://www.w3.org/2000/svg">
<path d="M33.4453 19.3828C33.2109 18.4453 32.4688 17.7031 31.5703 17.4688C29.8906 17 23.25 17 23.25 17C23.25 17 16.5703 17 14.8906 17.4688C13.9922 17.7031 13.25 18.4453 13.0156 19.3828C12.5469 21.0234 12.5469 24.5391 12.5469 24.5391C12.5469 24.5391 12.5469 28.0156 13.0156 29.6953C13.25 30.6328 13.9922 31.3359 14.8906 31.5703C16.5703 32 23.25 32 23.25 32C23.25 32 29.8906 32 31.5703 31.5703C32.4688 31.3359 33.2109 30.6328 33.4453 29.6953C33.9141 28.0156 33.9141 24.5391 33.9141 24.5391C33.9141 24.5391 33.9141 21.0234 33.4453 19.3828ZM21.0625 27.7031V21.375L26.6094 24.5391L21.0625 27.7031Z" fill="#333A3F"/>
<rect x="1" y="1" width="46" height="46" rx="7" stroke="#DDE1E6" stroke-width="2"/>
</svg>
